<svg id="Layer_1" data-name="Layer 1" xmlns="http://www.w3.org/2000/svg" viewBox="0 0 400 300" width="406" height="306" class="illustration styles_illustrationTablet__1DWOa"><path d="M88.33,258.35S44.77,206.63,66.55,142.07,131.72,53.75,216,53.66C301.6,53.57,383.77,137.2,311.79,258Z" fill="#dddbdb" opacity="0.18"></path><circle cx="109.53" cy="77.89" r="15.5" fill="#ffd200"></circle><circle cx="109.53" cy="77.89" r="24.22" fill="#ffd200" opacity="0.15"></circle><path d="M339.66,96.11a5.13,5.13,0,0,0-1.8.32,9.31,9.31,0,0,0,.42-2.76,9.13,9.13,0,1,0-18.25,0c0,.24,0,.48,0,.72a6.49,6.49,0,0,0-3-.72,6.61,6.61,0,1,0,0,13.22h22.58a5.39,5.39,0,0,0,0-10.78Z" fill="#dddbdb" opacity="0.3"></path><path d="M83.31,116.11a3.11,3.11,0,0,0-1.06.18,5.35,5.35,0,1,0-10.46-1.62c0,.15,0,.29,0,.43a3.84,3.84,0,0,0-1.75-.43,3.88,3.88,0,1,0,0,7.76H83.31a3.16,3.16,0,1,0,0-6.32Z" fill="#dddbdb" opacity="0.3"></path><path d="M317.17,138.63V124.3h-3V137L301.6,130.4V53.57h-6.21V50h-1.66V36.83h-3V50H265.36v3.6H259V97.39H237.21V85.26h-3V97.39h-7.92v79.23H220V138.5H208v-42h-10.2V73.08h-4.25V59.73h-3V73.08h-8.66v-6.3H159.12V59.73h-3v7.05h-7.27V194.62h-5.7v-35.9s-7,.24-7.21,0,0-44.53,0-44.53H122v-9.41h-3v9.41h-2.51v68.43h-6.91v71.17l210.53-2.4V140.15Z" fill="#e6e6e6"></path><path d="M276.15,247.48c-22,20.24-44.13-14.69-76.84-14.69-25.36,0-48.07,34.82-78.17,12-3.36-2.55-5.2-7.37-5.38-13.45-.72-23.59,23.57-66.08,80.37-68.19,54.28-2,78.47,29.77,84.1,55.4C283.08,231.47,281.23,242.8,276.15,247.48Z" fill="#68e1fd"></path><path d="M276.15,247.48c-22,20.24-44.13-14.69-76.84-14.69-25.36,0-48.07,34.82-78.17,12-3.36-2.55-5.2-7.37-5.38-13.45A26.59,26.59,0,0,0,132,236.51c10.74-.24,20.59-5.76,29.75-11.37s18.55-11.64,29.21-13.08c10.35-1.39,20.86,1.76,30.15,6.53,5.48,2.82,10.68,6.23,16.37,8.6,8.82,3.69,18.94,4.78,28,1.8a30.79,30.79,0,0,0,14.78-10.42C283.08,231.47,281.23,242.8,276.15,247.48Z" opacity="0.08"></path><path d="M137.62,203.37a5.34,5.34,0,0,0,5.11,6.19,12.17,12.17,0,0,0,4.81-1.4c12.34-5.51,24.72-11,36.23-18.11,2.42-1.48,4.87-3.1,6.42-5.48,4-6.13-1.34-11.16-7.45-11.6-10.74-.76-21.17,4.21-29.36,10.79C150,186.49,138.63,196.34,137.62,203.37Z" fill="#fff" opacity="0.2"></path><path d="M196.65,172.73a3.75,3.75,0,0,0,1.6,2.9c1.7,1.34,4,1.7,6.12,1.9,2.89.28,6.42.11,7.5-3.12a4.34,4.34,0,0,0-2-5.29C206.71,167.32,196.76,167.82,196.65,172.73Z" fill="#fff" opacity="0.2"></path><polygon points="96.91 144.85 93.76 144.85 93.76 140.76 79.1 140.76 79.1 144.85 76.62 144.85 70.27 257.42 70.27 257.42 103.25 257.42 96.91 144.85" fill="#e6e6e6"></polygon><rect x="59.14" y="251.67" width="279.04" height="11.5" rx="5.57" fill="#24285b"></rect></svg>